<mxfile host="app.diagrams.net" modified="2023-11-18T19:24:05.431Z" agent="Mozilla/5.0 (Windows NT 10.0; Win64; x64) AppleWebKit/537.36 (KHTML, like Gecko) Chrome/119.0.0.0 Safari/537.36 Edg/119.0.0.0" etag="ZldJ-xIMcBooJiiwZ0DA" version="22.1.3" type="google">
  <diagram name="Page-1" id="2YBvvXClWsGukQMizWep">
    <mxGraphModel grid="1" page="1" gridSize="10" guides="1" tooltips="1" connect="1" arrows="1" fold="1" pageScale="1" pageWidth="850" pageHeight="1100" math="0" shadow="0">
      <root>
        <mxCell id="0" />
        <mxCell id="1" parent="0" />
        <mxCell id="7whyAsBfxuEtvZwWjJJH-1" value="&lt;b&gt;sd &lt;/b&gt;U5 Autocomplete Query" style="shape=umlFrame;whiteSpace=wrap;html=1;pointerEvents=0;width=160;height=30;" vertex="1" parent="1">
          <mxGeometry width="840" height="530" as="geometry" />
        </mxCell>
        <mxCell id="4sNUH4MID66JMeWqkbAW-1" value="Guest" style="shape=umlLifeline;perimeter=lifelinePerimeter;whiteSpace=wrap;html=1;container=1;dropTarget=0;collapsible=0;recursiveResize=0;outlineConnect=0;portConstraint=eastwest;newEdgeStyle={&quot;curved&quot;:0,&quot;rounded&quot;:0};participant=umlActor;" vertex="1" parent="1">
          <mxGeometry x="30" y="40" width="20" height="490" as="geometry" />
        </mxCell>
        <mxCell id="7whyAsBfxuEtvZwWjJJH-2" value="" style="html=1;points=[[0,0,0,0,5],[0,1,0,0,-5],[1,0,0,0,5],[1,1,0,0,-5]];perimeter=orthogonalPerimeter;outlineConnect=0;targetShapes=umlLifeline;portConstraint=eastwest;newEdgeStyle={&quot;curved&quot;:0,&quot;rounded&quot;:0};" vertex="1" parent="4sNUH4MID66JMeWqkbAW-1">
          <mxGeometry x="5" y="100" width="10" height="340" as="geometry" />
        </mxCell>
        <mxCell id="4MHfmCjgP59sbqSFC2zw-3" value="" style="html=1;points=[[0,0,0,0,5],[0,1,0,0,-5],[1,0,0,0,5],[1,1,0,0,-5]];perimeter=orthogonalPerimeter;outlineConnect=0;targetShapes=umlLifeline;portConstraint=eastwest;newEdgeStyle={&quot;curved&quot;:0,&quot;rounded&quot;:0};" vertex="1" parent="4sNUH4MID66JMeWqkbAW-1">
          <mxGeometry x="5" y="460" width="10" height="9" as="geometry" />
        </mxCell>
        <mxCell id="7whyAsBfxuEtvZwWjJJH-3" value="SearchUI" style="shape=umlLifeline;perimeter=lifelinePerimeter;whiteSpace=wrap;html=1;container=1;dropTarget=0;collapsible=0;recursiveResize=0;outlineConnect=0;portConstraint=eastwest;newEdgeStyle={&quot;curved&quot;:0,&quot;rounded&quot;:0};participant=umlBoundary;" vertex="1" parent="1">
          <mxGeometry x="150" y="40" width="50" height="490" as="geometry" />
        </mxCell>
        <mxCell id="7whyAsBfxuEtvZwWjJJH-6" value="" style="html=1;points=[[0,0,0,0,5],[0,1,0,0,-5],[1,0,0,0,5],[1,1,0,0,-5]];perimeter=orthogonalPerimeter;outlineConnect=0;targetShapes=umlLifeline;portConstraint=eastwest;newEdgeStyle={&quot;curved&quot;:0,&quot;rounded&quot;:0};" vertex="1" parent="7whyAsBfxuEtvZwWjJJH-3">
          <mxGeometry x="20" y="100" width="10" height="30" as="geometry" />
        </mxCell>
        <mxCell id="7whyAsBfxuEtvZwWjJJH-12" value="" style="html=1;points=[[0,0,0,0,5],[0,1,0,0,-5],[1,0,0,0,5],[1,1,0,0,-5]];perimeter=orthogonalPerimeter;outlineConnect=0;targetShapes=umlLifeline;portConstraint=eastwest;newEdgeStyle={&quot;curved&quot;:0,&quot;rounded&quot;:0};" vertex="1" parent="7whyAsBfxuEtvZwWjJJH-3">
          <mxGeometry x="20" y="50" width="10" height="20" as="geometry" />
        </mxCell>
        <mxCell id="4sNUH4MID66JMeWqkbAW-11" value="" style="html=1;points=[[0,0,0,0,5],[0,1,0,0,-5],[1,0,0,0,5],[1,1,0,0,-5]];perimeter=orthogonalPerimeter;outlineConnect=0;targetShapes=umlLifeline;portConstraint=eastwest;newEdgeStyle={&quot;curved&quot;:0,&quot;rounded&quot;:0};" vertex="1" parent="7whyAsBfxuEtvZwWjJJH-3">
          <mxGeometry x="20" y="365" width="10" height="67" as="geometry" />
        </mxCell>
        <mxCell id="4MHfmCjgP59sbqSFC2zw-4" value="" style="html=1;points=[[0,0,0,0,5],[0,1,0,0,-5],[1,0,0,0,5],[1,1,0,0,-5]];perimeter=orthogonalPerimeter;outlineConnect=0;targetShapes=umlLifeline;portConstraint=eastwest;newEdgeStyle={&quot;curved&quot;:0,&quot;rounded&quot;:0};" vertex="1" parent="7whyAsBfxuEtvZwWjJJH-3">
          <mxGeometry x="20" y="460" width="10" height="9" as="geometry" />
        </mxCell>
        <mxCell id="4sNUH4MID66JMeWqkbAW-2" value="SearchViewModel" style="shape=umlLifeline;perimeter=lifelinePerimeter;whiteSpace=wrap;html=1;container=1;dropTarget=0;collapsible=0;recursiveResize=0;outlineConnect=0;portConstraint=eastwest;newEdgeStyle={&quot;curved&quot;:0,&quot;rounded&quot;:0};participant=umlControl;" vertex="1" parent="1">
          <mxGeometry x="280" y="40" width="40" height="490" as="geometry" />
        </mxCell>
        <mxCell id="7whyAsBfxuEtvZwWjJJH-7" value="" style="html=1;points=[[0,0,0,0,5],[0,1,0,0,-5],[1,0,0,0,5],[1,1,0,0,-5]];perimeter=orthogonalPerimeter;outlineConnect=0;targetShapes=umlLifeline;portConstraint=eastwest;newEdgeStyle={&quot;curved&quot;:0,&quot;rounded&quot;:0};" vertex="1" parent="4sNUH4MID66JMeWqkbAW-2">
          <mxGeometry x="15" y="110" width="10" height="150" as="geometry" />
        </mxCell>
        <mxCell id="7whyAsBfxuEtvZwWjJJH-13" value="" style="html=1;points=[[0,0,0,0,5],[0,1,0,0,-5],[1,0,0,0,5],[1,1,0,0,-5]];perimeter=orthogonalPerimeter;outlineConnect=0;targetShapes=umlLifeline;portConstraint=eastwest;newEdgeStyle={&quot;curved&quot;:0,&quot;rounded&quot;:0};" vertex="1" parent="4sNUH4MID66JMeWqkbAW-2">
          <mxGeometry x="15" y="50" width="10" height="20" as="geometry" />
        </mxCell>
        <mxCell id="4sNUH4MID66JMeWqkbAW-5" value="&lt;font style=&quot;font-size: 8px;&quot;&gt;searchAndUpdate(query)&lt;/font&gt;" style="html=1;verticalAlign=bottom;endArrow=block;curved=0;rounded=0;" edge="1" parent="4sNUH4MID66JMeWqkbAW-2">
          <mxGeometry width="80" relative="1" as="geometry">
            <mxPoint x="25" y="126" as="sourcePoint" />
            <mxPoint x="25" y="156" as="targetPoint" />
            <Array as="points">
              <mxPoint x="90" y="126" />
              <mxPoint x="90" y="156" />
            </Array>
          </mxGeometry>
        </mxCell>
        <mxCell id="4sNUH4MID66JMeWqkbAW-8" value="" style="html=1;points=[[0,0,0,0,5],[0,1,0,0,-5],[1,0,0,0,5],[1,1,0,0,-5]];perimeter=orthogonalPerimeter;outlineConnect=0;targetShapes=umlLifeline;portConstraint=eastwest;newEdgeStyle={&quot;curved&quot;:0,&quot;rounded&quot;:0};" vertex="1" parent="4sNUH4MID66JMeWqkbAW-2">
          <mxGeometry x="15" y="280" width="10" height="70" as="geometry" />
        </mxCell>
        <mxCell id="4sNUH4MID66JMeWqkbAW-9" value="" style="html=1;points=[[0,0,0,0,5],[0,1,0,0,-5],[1,0,0,0,5],[1,1,0,0,-5]];perimeter=orthogonalPerimeter;outlineConnect=0;targetShapes=umlLifeline;portConstraint=eastwest;newEdgeStyle={&quot;curved&quot;:0,&quot;rounded&quot;:0};" vertex="1" parent="4sNUH4MID66JMeWqkbAW-2">
          <mxGeometry x="15" y="365" width="10" height="20" as="geometry" />
        </mxCell>
        <mxCell id="7whyAsBfxuEtvZwWjJJH-19" value="&lt;font style=&quot;font-size: 8px;&quot;&gt;set(searchResults, value)&lt;/font&gt;" style="html=1;verticalAlign=bottom;endArrow=block;curved=0;rounded=0;" edge="1" parent="4sNUH4MID66JMeWqkbAW-2">
          <mxGeometry x="0.1818" y="-30" width="80" relative="1" as="geometry">
            <mxPoint x="25" y="311" as="sourcePoint" />
            <mxPoint x="25" y="331" as="targetPoint" />
            <Array as="points">
              <mxPoint x="70" y="311" />
              <mxPoint x="70" y="331" />
            </Array>
            <mxPoint x="30" y="30" as="offset" />
          </mxGeometry>
        </mxCell>
        <mxCell id="4MHfmCjgP59sbqSFC2zw-6" value="" style="html=1;points=[[0,0,0,0,5],[0,1,0,0,-5],[1,0,0,0,5],[1,1,0,0,-5]];perimeter=orthogonalPerimeter;outlineConnect=0;targetShapes=umlLifeline;portConstraint=eastwest;newEdgeStyle={&quot;curved&quot;:0,&quot;rounded&quot;:0};" vertex="1" parent="4sNUH4MID66JMeWqkbAW-2">
          <mxGeometry x="15" y="463" width="10" height="9" as="geometry" />
        </mxCell>
        <mxCell id="4sNUH4MID66JMeWqkbAW-3" value="LocationService" style="shape=umlLifeline;perimeter=lifelinePerimeter;whiteSpace=wrap;html=1;container=1;dropTarget=0;collapsible=0;recursiveResize=0;outlineConnect=0;portConstraint=eastwest;newEdgeStyle={&quot;curved&quot;:0,&quot;rounded&quot;:0};participant=umlControl;" vertex="1" parent="1">
          <mxGeometry x="420" y="40" width="40" height="490" as="geometry" />
        </mxCell>
        <mxCell id="7whyAsBfxuEtvZwWjJJH-8" value="" style="html=1;points=[[0,0,0,0,5],[0,1,0,0,-5],[1,0,0,0,5],[1,1,0,0,-5]];perimeter=orthogonalPerimeter;outlineConnect=0;targetShapes=umlLifeline;portConstraint=eastwest;newEdgeStyle={&quot;curved&quot;:0,&quot;rounded&quot;:0};" vertex="1" parent="4sNUH4MID66JMeWqkbAW-3">
          <mxGeometry x="15" y="240" width="10" height="60" as="geometry" />
        </mxCell>
        <mxCell id="7whyAsBfxuEtvZwWjJJH-4" value="SearchHistoryDB" style="shape=umlLifeline;perimeter=lifelinePerimeter;whiteSpace=wrap;html=1;container=1;dropTarget=0;collapsible=0;recursiveResize=0;outlineConnect=0;portConstraint=eastwest;newEdgeStyle={&quot;curved&quot;:0,&quot;rounded&quot;:0};participant=umlEntity;" vertex="1" parent="1">
          <mxGeometry x="760" y="30" width="40" height="500" as="geometry" />
        </mxCell>
        <mxCell id="7whyAsBfxuEtvZwWjJJH-9" value="" style="html=1;points=[[0,0,0,0,5],[0,1,0,0,-5],[1,0,0,0,5],[1,1,0,0,-5]];perimeter=orthogonalPerimeter;outlineConnect=0;targetShapes=umlLifeline;portConstraint=eastwest;newEdgeStyle={&quot;curved&quot;:0,&quot;rounded&quot;:0};" vertex="1" parent="7whyAsBfxuEtvZwWjJJH-4">
          <mxGeometry x="15" y="473" width="10" height="20" as="geometry" />
        </mxCell>
        <mxCell id="7whyAsBfxuEtvZwWjJJH-5" value="&lt;font style=&quot;font-size: 8px;&quot;&gt;type destination into search bar&lt;/font&gt;" style="html=1;verticalAlign=bottom;endArrow=block;curved=0;rounded=0;" edge="1" parent="1">
          <mxGeometry width="80" relative="1" as="geometry">
            <mxPoint x="45" y="152" as="sourcePoint" />
            <mxPoint x="169.9999999999999" y="152" as="targetPoint" />
          </mxGeometry>
        </mxCell>
        <mxCell id="7whyAsBfxuEtvZwWjJJH-10" value="OneMapApi" style="shape=umlLifeline;perimeter=lifelinePerimeter;whiteSpace=wrap;html=1;container=1;dropTarget=0;collapsible=0;recursiveResize=0;outlineConnect=0;portConstraint=eastwest;newEdgeStyle={&quot;curved&quot;:0,&quot;rounded&quot;:0};participant=umlBoundary;" vertex="1" parent="1">
          <mxGeometry x="580" y="40" width="50" height="490" as="geometry" />
        </mxCell>
        <mxCell id="7whyAsBfxuEtvZwWjJJH-11" value="" style="html=1;points=[[0,0,0,0,5],[0,1,0,0,-5],[1,0,0,0,5],[1,1,0,0,-5]];perimeter=orthogonalPerimeter;outlineConnect=0;targetShapes=umlLifeline;portConstraint=eastwest;newEdgeStyle={&quot;curved&quot;:0,&quot;rounded&quot;:0};" vertex="1" parent="7whyAsBfxuEtvZwWjJJH-10">
          <mxGeometry x="20" y="250" width="10" height="40" as="geometry" />
        </mxCell>
        <mxCell id="7whyAsBfxuEtvZwWjJJH-14" value="&lt;font style=&quot;font-size: 8px;&quot;&gt;search(text)&lt;/font&gt;" style="html=1;verticalAlign=bottom;endArrow=block;curved=0;rounded=0;" edge="1" parent="1" target="7whyAsBfxuEtvZwWjJJH-11">
          <mxGeometry width="80" relative="1" as="geometry">
            <mxPoint x="445" y="300" as="sourcePoint" />
            <mxPoint x="580" y="300" as="targetPoint" />
          </mxGeometry>
        </mxCell>
        <mxCell id="7whyAsBfxuEtvZwWjJJH-15" value="&lt;font style=&quot;font-size: 8px;&quot;&gt;onSearchText(query)&lt;/font&gt;" style="html=1;verticalAlign=bottom;endArrow=block;curved=0;rounded=0;" edge="1" parent="1">
          <mxGeometry width="80" relative="1" as="geometry">
            <mxPoint x="180" y="161" as="sourcePoint" />
            <mxPoint x="295" y="161" as="targetPoint" />
          </mxGeometry>
        </mxCell>
        <mxCell id="4sNUH4MID66JMeWqkbAW-6" value="&lt;font style=&quot;font-size: 8px;&quot;&gt;cancelLastRequest()&lt;/font&gt;" style="html=1;verticalAlign=bottom;endArrow=block;curved=0;rounded=0;" edge="1" parent="1">
          <mxGeometry x="0.2" y="-25" width="80" relative="1" as="geometry">
            <mxPoint x="305" y="216" as="sourcePoint" />
            <mxPoint x="305" y="246" as="targetPoint" />
            <Array as="points">
              <mxPoint x="365" y="216" />
              <mxPoint x="365" y="246" />
            </Array>
            <mxPoint x="25" y="25" as="offset" />
          </mxGeometry>
        </mxCell>
        <mxCell id="4sNUH4MID66JMeWqkbAW-4" value="&lt;font style=&quot;font-size: 8px;&quot;&gt;searchResults.collectAsState()&lt;/font&gt;" style="html=1;verticalAlign=bottom;endArrow=block;curved=0;rounded=0;" edge="1" parent="1" target="7whyAsBfxuEtvZwWjJJH-13">
          <mxGeometry width="80" relative="1" as="geometry">
            <mxPoint x="180" y="100" as="sourcePoint" />
            <mxPoint x="280" y="100" as="targetPoint" />
          </mxGeometry>
        </mxCell>
        <mxCell id="4sNUH4MID66JMeWqkbAW-7" value="&lt;font style=&quot;font-size: 8px;&quot;&gt;resolve(query)&lt;/font&gt;" style="html=1;verticalAlign=bottom;endArrow=block;curved=0;rounded=0;" edge="1" parent="1">
          <mxGeometry width="80" relative="1" as="geometry">
            <mxPoint x="305" y="283.99999999999994" as="sourcePoint" />
            <mxPoint x="435" y="283.99999999999994" as="targetPoint" />
          </mxGeometry>
        </mxCell>
        <mxCell id="7whyAsBfxuEtvZwWjJJH-17" value="&lt;font style=&quot;font-size: 8px;&quot;&gt;List&amp;lt;Location&amp;gt;&lt;/font&gt;" style="html=1;verticalAlign=bottom;endArrow=open;dashed=1;endSize=8;curved=0;rounded=0;" edge="1" parent="1">
          <mxGeometry relative="1" as="geometry">
            <mxPoint x="600" y="321" as="sourcePoint" />
            <mxPoint x="445" y="321" as="targetPoint" />
            <Array as="points">
              <mxPoint x="590" y="321" />
            </Array>
          </mxGeometry>
        </mxCell>
        <mxCell id="4sNUH4MID66JMeWqkbAW-10" value="&lt;font style=&quot;font-size: 8px;&quot;&gt;searchResults.notify()&lt;/font&gt;" style="html=1;verticalAlign=bottom;endArrow=open;curved=0;rounded=0;dashed=1;endFill=0;" edge="1" parent="1" source="4sNUH4MID66JMeWqkbAW-9">
          <mxGeometry width="80" relative="1" as="geometry">
            <mxPoint x="290" y="412" as="sourcePoint" />
            <mxPoint x="180" y="412" as="targetPoint" />
          </mxGeometry>
        </mxCell>
        <mxCell id="4sNUH4MID66JMeWqkbAW-12" value="&lt;font style=&quot;font-size: 8px;&quot;&gt;recompose()&lt;/font&gt;" style="html=1;verticalAlign=bottom;endArrow=block;curved=0;rounded=0;" edge="1" parent="1">
          <mxGeometry x="0.2" y="-25" width="80" relative="1" as="geometry">
            <mxPoint x="180" y="432" as="sourcePoint" />
            <mxPoint x="180" y="462" as="targetPoint" />
            <Array as="points">
              <mxPoint x="240" y="432" />
              <mxPoint x="240" y="462" />
            </Array>
            <mxPoint x="25" y="25" as="offset" />
          </mxGeometry>
        </mxCell>
        <mxCell id="7whyAsBfxuEtvZwWjJJH-18" value="&lt;font style=&quot;font-size: 8px;&quot;&gt;value = List&amp;lt;Location&amp;gt;&lt;/font&gt;" style="html=1;verticalAlign=bottom;endArrow=open;dashed=1;endSize=8;curved=0;rounded=0;" edge="1" parent="1">
          <mxGeometry relative="1" as="geometry">
            <mxPoint x="435.0000000000001" y="330" as="sourcePoint" />
            <mxPoint x="305" y="330" as="targetPoint" />
          </mxGeometry>
        </mxCell>
        <mxCell id="7whyAsBfxuEtvZwWjJJH-24" value="" style="html=1;verticalAlign=bottom;endArrow=block;curved=0;rounded=0;" edge="1" parent="1">
          <mxGeometry x="-0.0108" y="-20" width="80" relative="1" as="geometry">
            <mxPoint x="405" y="410" as="sourcePoint" />
            <mxPoint x="405" y="410" as="targetPoint" />
            <mxPoint as="offset" />
          </mxGeometry>
        </mxCell>
        <mxCell id="4MHfmCjgP59sbqSFC2zw-2" value="display suggestions" style="html=1;verticalAlign=bottom;endArrow=block;curved=0;rounded=0;" edge="1" parent="1" target="7whyAsBfxuEtvZwWjJJH-2">
          <mxGeometry width="80" relative="1" as="geometry">
            <mxPoint x="170" y="468" as="sourcePoint" />
            <mxPoint x="45" y="468" as="targetPoint" />
          </mxGeometry>
        </mxCell>
        <mxCell id="4MHfmCjgP59sbqSFC2zw-5" value="select location" style="html=1;verticalAlign=bottom;endArrow=block;curved=0;rounded=0;" edge="1" parent="1" source="4MHfmCjgP59sbqSFC2zw-3" target="4MHfmCjgP59sbqSFC2zw-4">
          <mxGeometry width="80" relative="1" as="geometry">
            <mxPoint x="290" y="340" as="sourcePoint" />
            <mxPoint x="370" y="340" as="targetPoint" />
          </mxGeometry>
        </mxCell>
        <mxCell id="4MHfmCjgP59sbqSFC2zw-7" value="gotoLocation(location)" style="html=1;verticalAlign=bottom;endArrow=block;curved=0;rounded=0;" edge="1" parent="1">
          <mxGeometry width="80" relative="1" as="geometry">
            <mxPoint x="180" y="506.5000000000001" as="sourcePoint" />
            <mxPoint x="295" y="506.5000000000001" as="targetPoint" />
          </mxGeometry>
        </mxCell>
        <mxCell id="4MHfmCjgP59sbqSFC2zw-8" value="insertLocation(location)" style="html=1;verticalAlign=bottom;endArrow=block;curved=0;rounded=0;" edge="1" parent="1">
          <mxGeometry width="80" relative="1" as="geometry">
            <mxPoint x="305" y="509.5" as="sourcePoint" />
            <mxPoint x="775" y="509.5" as="targetPoint" />
          </mxGeometry>
        </mxCell>
      </root>
    </mxGraphModel>
  </diagram>
</mxfile>
